<?xml version="1.0" encoding="us-ascii" standalone="no"?><svg xmlns="http://www.w3.org/2000/svg" xmlns:xlink="http://www.w3.org/1999/xlink" contentStyleType="text/css" height="573px" preserveAspectRatio="none" style="width:906px;height:573px;background:#F9F9F9;" version="1.1" viewBox="0 0 906 573" width="906px" zoomAndPan="magnify"><defs/><g><rect fill="#F9F9F9" height="573" style="stroke:none;stroke-width:1.0;" width="906" x="0" y="0"/><!--cluster Web Application--><g id="cluster_Web Application"><rect fill="none" height="97.3" rx="3.5" ry="3.5" style="stroke:#393939;stroke-width:1.0;" width="391" x="152" y="135.29"/><text fill="#000000" font-family="sans-serif" font-size="14" font-weight="bold" lengthAdjust="spacing" textLength="127" x="284" y="150.2851">Web Application</text></g><!--cluster External Data Sources--><g id="cluster_External Data Sources"><path d="M9.5,6 L182.5,6 A5.25,5.25 0 0 1 186,9.5 L193,28.2969 L895.5,28.2969 A3.5,3.5 0 0 1 899,31.7969 L899,107.79 A3.5,3.5 0 0 1 895.5,111.29 L9.5,111.29 A3.5,3.5 0 0 1 6,107.79 L6,9.5 A3.5,3.5 0 0 1 9.5,6 " fill="none" style="stroke:#393939;stroke-width:1.0;"/><line style="stroke:#393939;stroke-width:1.0;" x1="6" x2="193" y1="28.2969" y2="28.2969"/><text fill="#000000" font-family="sans-serif" font-size="14" font-weight="bold" lengthAdjust="spacing" textLength="174" x="10" y="20.9951">External Data Sources</text></g><!--cluster Metadata Storage--><g id="cluster_Metadata Storage"><path d="M245.5,257.09 L383.5,257.09 A5.25,5.25 0 0 1 387,260.59 L394,279.3869 L393.5,279.3869 A3.5,3.5 0 0 1 397,282.8869 L397,349.89 A3.5,3.5 0 0 1 393.5,353.39 L245.5,353.39 A3.5,3.5 0 0 1 242,349.89 L242,260.59 A3.5,3.5 0 0 1 245.5,257.09 " fill="none" style="stroke:#393939;stroke-width:1.0;"/><line style="stroke:#393939;stroke-width:1.0;" x1="242" x2="394" y1="279.3869" y2="279.3869"/><text fill="#000000" font-family="sans-serif" font-size="14" font-weight="bold" lengthAdjust="spacing" textLength="139" x="246" y="272.0851">Metadata Storage</text></g><!--cluster Data Processing--><g id="cluster_Data Processing"><path d="M424.5,256.59 L551.5,256.59 A5.25,5.25 0 0 1 555,260.09 L562,278.8869 L561.5,278.8869 A3.5,3.5 0 0 1 565,282.3869 L565,562.98 A3.5,3.5 0 0 1 561.5,566.48 L424.5,566.48 A3.5,3.5 0 0 1 421,562.98 L421,260.09 A3.5,3.5 0 0 1 424.5,256.59 " fill="none" style="stroke:#393939;stroke-width:1.0;"/><line style="stroke:#393939;stroke-width:1.0;" x1="421" x2="562" y1="278.8869" y2="278.8869"/><text fill="#000000" font-family="sans-serif" font-size="14" font-weight="bold" lengthAdjust="spacing" textLength="128" x="425" y="271.5851">Data Processing</text></g><!--entity WebUI--><g id="elem_WebUI"><rect fill="#F1F1F1" height="46.2969" rx="3.5" ry="3.5" style="stroke:#181818;stroke-width:0.5;" width="88" x="168" y="170.29"/><rect fill="#F1F1F1" height="10" style="stroke:#181818;stroke-width:0.5;" width="15" x="236" y="175.29"/><rect fill="#F1F1F1" height="2" style="stroke:#181818;stroke-width:0.5;" width="4" x="234" y="177.29"/><rect fill="#F1F1F1" height="2" style="stroke:#181818;stroke-width:0.5;" width="4" x="234" y="181.29"/><text fill="#000000" font-family="sans-serif" font-size="14" lengthAdjust="spacing" textLength="48" x="183" y="203.2851">Web UI</text></g><!--entity SpringBoot--><g id="elem_SpringBoot"><rect fill="#F1F1F1" height="46.2969" rx="3.5" ry="3.5" style="stroke:#181818;stroke-width:0.5;" width="236" x="291" y="170.29"/><rect fill="#F1F1F1" height="10" style="stroke:#181818;stroke-width:0.5;" width="15" x="507" y="175.29"/><rect fill="#F1F1F1" height="2" style="stroke:#181818;stroke-width:0.5;" width="4" x="505" y="177.29"/><rect fill="#F1F1F1" height="2" style="stroke:#181818;stroke-width:0.5;" width="4" x="505" y="181.29"/><text fill="#000000" font-family="sans-serif" font-size="14" lengthAdjust="spacing" textLength="196" x="306" y="203.2851">Java 11/Spring Boot Services</text></g><!--entity Oracle--><g id="elem_Oracle"><path d="M22,55.5 C22,45.5 54,45.5 54,45.5 C54,45.5 86,45.5 86,55.5 L86,80.7969 C86,90.7969 54,90.7969 54,90.7969 C54,90.7969 22,90.7969 22,80.7969 L22,55.5 " fill="#A4DBD8" style="stroke:#191919;stroke-width:0.5;"/><path d="M22,55.5 C22,65.5 54,65.5 54,65.5 C54,65.5 86,65.5 86,55.5 " fill="none" style="stroke:#191919;stroke-width:0.5;"/><text fill="#191919" font-family="sans-serif" font-size="14" lengthAdjust="spacing" textLength="44" x="32" y="82.4951">Oracle</text></g><!--entity SQLServer--><g id="elem_SQLServer"><path d="M120.5,55.5 C120.5,45.5 168,45.5 168,45.5 C168,45.5 215.5,45.5 215.5,55.5 L215.5,80.7969 C215.5,90.7969 168,90.7969 168,90.7969 C168,90.7969 120.5,90.7969 120.5,80.7969 L120.5,55.5 " fill="#A4DBD8" style="stroke:#191919;stroke-width:0.5;"/><path d="M120.5,55.5 C120.5,65.5 168,65.5 168,65.5 C168,65.5 215.5,65.5 215.5,55.5 " fill="none" style="stroke:#191919;stroke-width:0.5;"/><text fill="#191919" font-family="sans-serif" font-size="14" lengthAdjust="spacing" textLength="75" x="130.5" y="82.4951">SQL Server</text></g><!--entity Teradata--><g id="elem_Teradata"><path d="M250.5,55.5 C250.5,45.5 291,45.5 291,45.5 C291,45.5 331.5,45.5 331.5,55.5 L331.5,80.7969 C331.5,90.7969 291,90.7969 291,90.7969 C291,90.7969 250.5,90.7969 250.5,80.7969 L250.5,55.5 " fill="#A4DBD8" style="stroke:#191919;stroke-width:0.5;"/><path d="M250.5,55.5 C250.5,65.5 291,65.5 291,65.5 C291,65.5 331.5,65.5 331.5,55.5 " fill="none" style="stroke:#191919;stroke-width:0.5;"/><text fill="#191919" font-family="sans-serif" font-size="14" lengthAdjust="spacing" textLength="61" x="260.5" y="82.4951">Teradata</text></g><!--entity Impala--><g id="elem_Impala"><rect fill="#F1F1F1" height="46.2969" rx="3.5" ry="3.5" style="stroke:#181818;stroke-width:0.5;" width="84" x="367" y="45"/><rect fill="#F1F1F1" height="10" style="stroke:#181818;stroke-width:0.5;" width="15" x="431" y="50"/><rect fill="#F1F1F1" height="2" style="stroke:#181818;stroke-width:0.5;" width="4" x="429" y="52"/><rect fill="#F1F1F1" height="2" style="stroke:#181818;stroke-width:0.5;" width="4" x="429" y="56"/><text fill="#000000" font-family="sans-serif" font-size="14" lengthAdjust="spacing" textLength="44" x="382" y="77.9951">Impala</text></g><!--entity Hive--><g id="elem_Hive"><rect fill="#F1F1F1" height="46.2969" rx="3.5" ry="3.5" style="stroke:#181818;stroke-width:0.5;" width="69" x="486.5" y="45"/><rect fill="#F1F1F1" height="10" style="stroke:#181818;stroke-width:0.5;" width="15" x="535.5" y="50"/><rect fill="#F1F1F1" height="2" style="stroke:#181818;stroke-width:0.5;" width="4" x="533.5" y="52"/><rect fill="#F1F1F1" height="2" style="stroke:#181818;stroke-width:0.5;" width="4" x="533.5" y="56"/><text fill="#000000" font-family="sans-serif" font-size="14" lengthAdjust="spacing" textLength="29" x="501.5" y="77.9951">Hive</text></g><!--entity TextCSV--><g id="elem_TextCSV"><path d="M593.5,41 L632.5,41 A5.25,5.25 0 0 1 636,44.5 L643,62 L714.5,62 A3.5,3.5 0 0 1 718,65.5 L718,91.7969 A3.5,3.5 0 0 1 714.5,95.2969 L593.5,95.2969 A3.5,3.5 0 0 1 590,91.7969 L590,44.5 A3.5,3.5 0 0 1 593.5,41 " fill="#F1F1F1" style="stroke:#181818;stroke-width:0.5;"/><line style="stroke:#181818;stroke-width:0.5;" x1="590" x2="643" y1="62" y2="62"/><text fill="#000000" font-family="sans-serif" font-size="14" lengthAdjust="spacing" textLength="98" x="600" y="81.9951">Text/CSV Files</text></g><!--entity Email--><g id="elem_Email"><rect fill="#F1F1F1" height="46.2969" rx="3.5" ry="3.5" style="stroke:#181818;stroke-width:0.5;" width="129" x="753.5" y="45"/><rect fill="#F1F1F1" height="10" style="stroke:#181818;stroke-width:0.5;" width="15" x="862.5" y="50"/><rect fill="#F1F1F1" height="2" style="stroke:#181818;stroke-width:0.5;" width="4" x="860.5" y="52"/><rect fill="#F1F1F1" height="2" style="stroke:#181818;stroke-width:0.5;" width="4" x="860.5" y="56"/><text fill="#000000" font-family="sans-serif" font-size="14" lengthAdjust="spacing" textLength="89" x="768.5" y="77.9951">Email (SMTP)</text></g><!--entity OracleDB--><g id="elem_OracleDB"><path d="M292.5,302.09 C292.5,292.09 337,292.09 337,292.09 C337,292.09 381.5,292.09 381.5,302.09 L381.5,327.3869 C381.5,337.3869 337,337.3869 337,337.3869 C337,337.3869 292.5,337.3869 292.5,327.3869 L292.5,302.09 " fill="#A4DBD8" style="stroke:#191919;stroke-width:0.5;"/><path d="M292.5,302.09 C292.5,312.09 337,312.09 337,312.09 C337,312.09 381.5,312.09 381.5,302.09 " fill="none" style="stroke:#191919;stroke-width:0.5;"/><text fill="#191919" font-family="sans-serif" font-size="14" lengthAdjust="spacing" textLength="69" x="302.5" y="329.0851">Oracle DB</text></g><!--entity Spark--><g id="elem_Spark"><rect fill="#F1F1F1" height="46.2969" rx="3.5" ry="3.5" style="stroke:#181818;stroke-width:0.5;" width="79" x="440.5" y="291.59"/><rect fill="#F1F1F1" height="10" style="stroke:#181818;stroke-width:0.5;" width="15" x="499.5" y="296.59"/><rect fill="#F1F1F1" height="2" style="stroke:#181818;stroke-width:0.5;" width="4" x="497.5" y="298.59"/><rect fill="#F1F1F1" height="2" style="stroke:#181818;stroke-width:0.5;" width="4" x="497.5" y="302.59"/><text fill="#000000" font-family="sans-serif" font-size="14" lengthAdjust="spacing" textLength="39" x="455.5" y="324.5851">Spark</text></g><!--entity Hadoop--><g id="elem_Hadoop"><rect fill="#F1F1F1" height="46.2969" rx="3.5" ry="3.5" style="stroke:#181818;stroke-width:0.5;" width="94" x="437" y="397.89"/><rect fill="#F1F1F1" height="10" style="stroke:#181818;stroke-width:0.5;" width="15" x="511" y="402.89"/><rect fill="#F1F1F1" height="2" style="stroke:#181818;stroke-width:0.5;" width="4" x="509" y="404.89"/><rect fill="#F1F1F1" height="2" style="stroke:#181818;stroke-width:0.5;" width="4" x="509" y="408.89"/><text fill="#000000" font-family="sans-serif" font-size="14" lengthAdjust="spacing" textLength="54" x="452" y="430.8851">Hadoop</text></g><!--entity HDFS--><g id="elem_HDFS"><rect fill="#F1F1F1" height="46.2969" rx="3.5" ry="3.5" style="stroke:#181818;stroke-width:0.5;" width="78" x="445" y="504.18"/><rect fill="#F1F1F1" height="10" style="stroke:#181818;stroke-width:0.5;" width="15" x="503" y="509.18"/><rect fill="#F1F1F1" height="2" style="stroke:#181818;stroke-width:0.5;" width="4" x="501" y="511.18"/><rect fill="#F1F1F1" height="2" style="stroke:#181818;stroke-width:0.5;" width="4" x="501" y="515.18"/><text fill="#000000" font-family="sans-serif" font-size="14" lengthAdjust="spacing" textLength="38" x="460" y="537.1751">HDFS</text></g><!--link WebUI to SpringBoot--><g id="link_WebUI_SpringBoot"><path d="M256.25,193.44 C267.68,193.44 273.12,193.44 284.56,193.44 " fill="none" id="WebUI-to-SpringBoot" style="stroke:#191919;stroke-width:1.0;"/><polygon fill="#191919" points="290.56,193.44,281.56,189.44,285.56,193.44,281.56,197.44,290.56,193.44" style="stroke:#191919;stroke-width:1.0;"/></g><!--reverse link Oracle to SpringBoot--><g id="link_Oracle_SpringBoot"><path d="M73.0987,95.8843 C81.6787,106.3743 89.56,113.26 103,119.29 C137.5,134.78 236.33,118.05 273,127.29 C308.54,136.25 345.88,154.89 372.43,169.95 " fill="none" id="Oracle-backto-SpringBoot" style="stroke:#191919;stroke-width:1.0;"/><polygon fill="#191919" points="69.3,91.24,71.9018,100.739,72.4656,95.1103,78.0943,95.674,69.3,91.24" style="stroke:#191919;stroke-width:1.0;"/></g><!--reverse link SQLServer to SpringBoot--><g id="link_SQLServer_SpringBoot"><path d="M195.5183,94.9815 C207.2483,105.0215 217.69,112.32 233,119.29 C249.5,126.81 255.8,121.55 273,127.29 C306.4,138.44 342.25,155.86 368.75,169.88 " fill="none" id="SQLServer-backto-SpringBoot" style="stroke:#191919;stroke-width:1.0;"/><polygon fill="#191919" points="190.96,91.08,195.1964,99.9712,194.7586,94.3313,200.3985,93.8935,190.96,91.08" style="stroke:#191919;stroke-width:1.0;"/></g><!--reverse link Teradata to SpringBoot--><g id="link_Teradata_SpringBoot"><path d="M316.2483,95.5249 C337.5883,117.8249 366.27,147.79 387.69,170.17 " fill="none" id="Teradata-backto-SpringBoot" style="stroke:#191919;stroke-width:1.0;"/><polygon fill="#191919" points="312.1,91.19,315.4325,100.4579,315.5569,94.8024,321.2124,94.9268,312.1,91.19" style="stroke:#191919;stroke-width:1.0;"/></g><!--reverse link Impala to SpringBoot--><g id="link_Impala_SpringBoot"><path d="M409,97.76 C409,120.01 409,147.77 409,169.97 " fill="none" id="Impala-backto-SpringBoot" style="stroke:#191919;stroke-width:1.0;"/><polygon fill="#191919" points="409,91.76,405,100.76,409,96.76,413,100.76,409,91.76" style="stroke:#191919;stroke-width:1.0;"/></g><!--reverse link Hive to SpringBoot--><g id="link_Hive_SpringBoot"><path d="M496.4259,96.2014 C476.2159,118.4514 449.58,147.77 429.41,169.97 " fill="none" id="Hive-backto-SpringBoot" style="stroke:#191919;stroke-width:1.0;"/><polygon fill="#191919" points="500.46,91.76,491.4479,95.7326,497.0982,95.4611,497.3697,101.1115,500.46,91.76" style="stroke:#191919;stroke-width:1.0;"/></g><!--reverse link TextCSV to SpringBoot--><g id="link_TextCSV_SpringBoot"><path d="M608.3291,98.9253 C595.5991,106.8653 586.45,112.17 573,119.29 C537.73,137.97 496.73,156.25 464.55,169.87 " fill="none" id="TextCSV-backto-SpringBoot" style="stroke:#191919;stroke-width:1.0;"/><polygon fill="#191919" points="613.42,95.75,603.6668,97.119,609.1776,98.3961,607.9005,103.9069,613.42,95.75" style="stroke:#191919;stroke-width:1.0;"/></g><!--reverse link Email to SpringBoot--><g id="link_Email_SpringBoot"><path d="M781.5659,95.0252 C766.8059,104.7252 753.63,112.16 736,119.29 C669.27,146.29 590.64,164.28 527.21,175.66 " fill="none" id="Email-backto-SpringBoot" style="stroke:#191919;stroke-width:1.0;"/><polygon fill="#191919" points="786.58,91.73,776.862,93.33,782.4015,94.476,781.2556,100.0156,786.58,91.73" style="stroke:#191919;stroke-width:1.0;"/></g><!--link SpringBoot to OracleDB--><g id="link_SpringBoot_OracleDB"><path d="M395.46,216.88 C382.5,238.34 366.1904,265.3732 353.3404,286.6632 " fill="none" id="SpringBoot-to-OracleDB" style="stroke:#191919;stroke-width:1.0;"/><polygon fill="#191919" points="350.24,291.8,358.3152,286.1617,352.8237,287.5193,351.4661,282.0278,350.24,291.8" style="stroke:#191919;stroke-width:1.0;"/></g><!--link SpringBoot to Spark--><g id="link_SpringBoot_Spark"><path d="M422.35,216.88 C435.05,238.21 450.9608,264.9444 463.6408,286.2444 " fill="none" id="SpringBoot-to-Spark" style="stroke:#191919;stroke-width:1.0;"/><polygon fill="#191919" points="466.71,291.4,465.5433,281.6205,464.1524,287.1037,458.6692,285.7127,466.71,291.4" style="stroke:#191919;stroke-width:1.0;"/></g><!--link Spark to Hadoop--><g id="link_Spark_Hadoop"><path d="M480.87,338.37 C481.54,355.86 482.2302,373.9744 482.9002,391.4544 " fill="none" id="Spark-to-Hadoop" style="stroke:#191919;stroke-width:1.0;"/><polygon fill="#191919" points="483.13,397.45,486.7824,388.3034,482.9385,392.4537,478.7882,388.6098,483.13,397.45" style="stroke:#191919;stroke-width:1.0;"/></g><!--link Hadoop to HDFS--><g id="link_Hadoop_HDFS"><path d="M484,444.67 C484,462.16 484,480.26 484,497.74 " fill="none" id="Hadoop-to-HDFS" style="stroke:#191919;stroke-width:1.0;"/><polygon fill="#191919" points="484,503.74,488,494.74,484,498.74,480,494.74,484,503.74" style="stroke:#191919;stroke-width:1.0;"/></g><!--SRC=[RLB1JW8n4BtlLuoSz408Fs0YBaGCH4X1pyDIiQ6xRRg5a1Z_tMbd1Lgyi6_Ucywqxt7dlsGjeKRN5eMJbSTcfoNqFkG6dgpLgaAlJDE3xmAWChKrZMmyw-jf3x05WkjfghxY4M4u70ZhLBE3aJ4UX7H7LSasdc4XyCLFKLYizhYZhUEJbwv13ILw164EBXu8kxV4RB2bfZU7bPPn3CD45SjPN2KTBrhEk4gQLj9Xg6BBNv4-OLfRrDp0C9LVr96l4019dqPlfGkJJtxmBDvXedJtra0HavuVrwWqt8lvQl4GkoAHc36NFjuBX3UEcFzzW79qPKKvIaP46nVEa8ij-NsJeh3ezbqWXB8dujOOou-CC9FBYM2HGDWQ_mVGT_t7wtWl4Fe7ahh8SlgIKwwSuyc5BfQSZe7S3k4CSfvTlsRFLoGhCvuzYh-nxbpX3pDanIy0]--></g></svg>