<?xml version="1.0" encoding="us-ascii" standalone="no"?><svg xmlns="http://www.w3.org/2000/svg" xmlns:xlink="http://www.w3.org/1999/xlink" contentStyleType="text/css" height="444px" preserveAspectRatio="none" style="width:1325px;height:444px;background:#FFFFFF;" version="1.1" viewBox="0 0 1325 444" width="1325px" zoomAndPan="magnify"><defs/><g><!--cluster Web Application--><g id="cluster_Web Application"><path d="M381.5,6 L507.5,6 A5.25,5.25 0 0 1 511,9.5 L518,28.2969 L765.5,28.2969 A3.5,3.5 0 0 1 769,31.7969 L769,99.8 A3.5,3.5 0 0 1 765.5,103.3 L381.5,103.3 A3.5,3.5 0 0 1 378,99.8 L378,9.5 A3.5,3.5 0 0 1 381.5,6 " fill="none" style="stroke:#696969;stroke-width:1.0;"/><line style="stroke:#696969;stroke-width:1.0;" x1="378" x2="518" y1="28.2969" y2="28.2969"/><text fill="#000000" font-family="sans-serif" font-size="14" font-weight="bold" lengthAdjust="spacing" textLength="127" x="382" y="20.9951">Web Application</text></g><!--cluster External Data Sources--><g id="cluster_External Data Sources"><path d="M9.5,127.3 L182.5,127.3 A5.25,5.25 0 0 1 186,130.8 L193,149.5969 L967.5,149.5969 A3.5,3.5 0 0 1 971,153.0969 L971,221.1 A3.5,3.5 0 0 1 967.5,224.6 L9.5,224.6 A3.5,3.5 0 0 1 6,221.1 L6,130.8 A3.5,3.5 0 0 1 9.5,127.3 " fill="none" style="stroke:#696969;stroke-width:1.0;"/><line style="stroke:#696969;stroke-width:1.0;" x1="6" x2="193" y1="149.5969" y2="149.5969"/><text fill="#000000" font-family="sans-serif" font-size="14" font-weight="bold" lengthAdjust="spacing" textLength="174" x="10" y="142.2951">External Data Sources</text></g><!--cluster Metadata Storage--><g id="cluster_Metadata Storage"><path d="M998.5,127.3 L1136.5,127.3 A5.25,5.25 0 0 1 1140,130.8 L1147,149.5969 L1146.5,149.5969 A3.5,3.5 0 0 1 1150,153.0969 L1150,221.1 A3.5,3.5 0 0 1 1146.5,224.6 L998.5,224.6 A3.5,3.5 0 0 1 995,221.1 L995,130.8 A3.5,3.5 0 0 1 998.5,127.3 " fill="none" style="stroke:#696969;stroke-width:1.0;"/><line style="stroke:#696969;stroke-width:1.0;" x1="995" x2="1147" y1="149.5969" y2="149.5969"/><text fill="#000000" font-family="sans-serif" font-size="14" font-weight="bold" lengthAdjust="spacing" textLength="139" x="999" y="142.2951">Metadata Storage</text></g><!--cluster Data Processing--><g id="cluster_Data Processing"><path d="M1177.5,127.3 L1304.5,127.3 A5.25,5.25 0 0 1 1308,130.8 L1315,149.5969 L1314.5,149.5969 A3.5,3.5 0 0 1 1318,153.0969 L1318,433.69 A3.5,3.5 0 0 1 1314.5,437.19 L1177.5,437.19 A3.5,3.5 0 0 1 1174,433.69 L1174,130.8 A3.5,3.5 0 0 1 1177.5,127.3 " fill="none" style="stroke:#696969;stroke-width:1.0;"/><line style="stroke:#696969;stroke-width:1.0;" x1="1174" x2="1315" y1="149.5969" y2="149.5969"/><text fill="#000000" font-family="sans-serif" font-size="14" font-weight="bold" lengthAdjust="spacing" textLength="128" x="1178" y="142.2951">Data Processing</text></g><!--entity Web UI--><g id="elem_Web UI"><rect fill="#F1F1F1" height="46.2969" rx="3.5" ry="3.5" style="stroke:#181818;stroke-width:0.5;" width="88" x="394" y="41"/><rect fill="#F1F1F1" height="10" style="stroke:#181818;stroke-width:0.5;" width="15" x="462" y="46"/><rect fill="#F1F1F1" height="2" style="stroke:#181818;stroke-width:0.5;" width="4" x="460" y="48"/><rect fill="#F1F1F1" height="2" style="stroke:#181818;stroke-width:0.5;" width="4" x="460" y="52"/><text fill="#000000" font-family="sans-serif" font-size="14" lengthAdjust="spacing" textLength="48" x="409" y="73.9951">Web UI</text></g><!--entity Java 11/Spring Boot Services--><g id="elem_Java 11/Spring Boot Services"><rect fill="#F1F1F1" height="46.2969" rx="3.5" ry="3.5" style="stroke:#181818;stroke-width:0.5;" width="236" x="517" y="41"/><rect fill="#F1F1F1" height="10" style="stroke:#181818;stroke-width:0.5;" width="15" x="733" y="46"/><rect fill="#F1F1F1" height="2" style="stroke:#181818;stroke-width:0.5;" width="4" x="731" y="48"/><rect fill="#F1F1F1" height="2" style="stroke:#181818;stroke-width:0.5;" width="4" x="731" y="52"/><text fill="#000000" font-family="sans-serif" font-size="14" lengthAdjust="spacing" textLength="196" x="532" y="73.9951">Java 11/Spring Boot Services</text></g><!--entity Oracle--><g id="elem_Oracle"><rect fill="#F1F1F1" height="46.2969" rx="3.5" ry="3.5" style="stroke:#181818;stroke-width:0.5;" width="84" x="871" y="162.3"/><rect fill="#F1F1F1" height="10" style="stroke:#181818;stroke-width:0.5;" width="15" x="935" y="167.3"/><rect fill="#F1F1F1" height="2" style="stroke:#181818;stroke-width:0.5;" width="4" x="933" y="169.3"/><rect fill="#F1F1F1" height="2" style="stroke:#181818;stroke-width:0.5;" width="4" x="933" y="173.3"/><text fill="#000000" font-family="sans-serif" font-size="14" lengthAdjust="spacing" textLength="44" x="886" y="195.2951">Oracle</text></g><!--entity SQL Server--><g id="elem_SQL Server"><rect fill="#F1F1F1" height="46.2969" rx="3.5" ry="3.5" style="stroke:#181818;stroke-width:0.5;" width="115" x="720.5" y="162.3"/><rect fill="#F1F1F1" height="10" style="stroke:#181818;stroke-width:0.5;" width="15" x="815.5" y="167.3"/><rect fill="#F1F1F1" height="2" style="stroke:#181818;stroke-width:0.5;" width="4" x="813.5" y="169.3"/><rect fill="#F1F1F1" height="2" style="stroke:#181818;stroke-width:0.5;" width="4" x="813.5" y="173.3"/><text fill="#000000" font-family="sans-serif" font-size="14" lengthAdjust="spacing" textLength="75" x="735.5" y="195.2951">SQL Server</text></g><!--entity Teradata--><g id="elem_Teradata"><rect fill="#F1F1F1" height="46.2969" rx="3.5" ry="3.5" style="stroke:#181818;stroke-width:0.5;" width="101" x="584.5" y="162.3"/><rect fill="#F1F1F1" height="10" style="stroke:#181818;stroke-width:0.5;" width="15" x="665.5" y="167.3"/><rect fill="#F1F1F1" height="2" style="stroke:#181818;stroke-width:0.5;" width="4" x="663.5" y="169.3"/><rect fill="#F1F1F1" height="2" style="stroke:#181818;stroke-width:0.5;" width="4" x="663.5" y="173.3"/><text fill="#000000" font-family="sans-serif" font-size="14" lengthAdjust="spacing" textLength="61" x="599.5" y="195.2951">Teradata</text></g><!--entity Impala--><g id="elem_Impala"><rect fill="#F1F1F1" height="46.2969" rx="3.5" ry="3.5" style="stroke:#181818;stroke-width:0.5;" width="84" x="465" y="162.3"/><rect fill="#F1F1F1" height="10" style="stroke:#181818;stroke-width:0.5;" width="15" x="529" y="167.3"/><rect fill="#F1F1F1" height="2" style="stroke:#181818;stroke-width:0.5;" width="4" x="527" y="169.3"/><rect fill="#F1F1F1" height="2" style="stroke:#181818;stroke-width:0.5;" width="4" x="527" y="173.3"/><text fill="#000000" font-family="sans-serif" font-size="14" lengthAdjust="spacing" textLength="44" x="480" y="195.2951">Impala</text></g><!--entity Hive--><g id="elem_Hive"><rect fill="#F1F1F1" height="46.2969" rx="3.5" ry="3.5" style="stroke:#181818;stroke-width:0.5;" width="69" x="360.5" y="162.3"/><rect fill="#F1F1F1" height="10" style="stroke:#181818;stroke-width:0.5;" width="15" x="409.5" y="167.3"/><rect fill="#F1F1F1" height="2" style="stroke:#181818;stroke-width:0.5;" width="4" x="407.5" y="169.3"/><rect fill="#F1F1F1" height="2" style="stroke:#181818;stroke-width:0.5;" width="4" x="407.5" y="173.3"/><text fill="#000000" font-family="sans-serif" font-size="14" lengthAdjust="spacing" textLength="29" x="375.5" y="195.2951">Hive</text></g><!--entity Text/CSV Files--><g id="elem_Text/CSV Files"><rect fill="#F1F1F1" height="46.2969" rx="3.5" ry="3.5" style="stroke:#181818;stroke-width:0.5;" width="138" x="187" y="162.3"/><rect fill="#F1F1F1" height="10" style="stroke:#181818;stroke-width:0.5;" width="15" x="305" y="167.3"/><rect fill="#F1F1F1" height="2" style="stroke:#181818;stroke-width:0.5;" width="4" x="303" y="169.3"/><rect fill="#F1F1F1" height="2" style="stroke:#181818;stroke-width:0.5;" width="4" x="303" y="173.3"/><text fill="#000000" font-family="sans-serif" font-size="14" lengthAdjust="spacing" textLength="98" x="202" y="195.2951">Text/CSV Files</text></g><!--entity Email (SMTP)--><g id="elem_Email (SMTP)"><rect fill="#F1F1F1" height="46.2969" rx="3.5" ry="3.5" style="stroke:#181818;stroke-width:0.5;" width="129" x="22.5" y="162.3"/><rect fill="#F1F1F1" height="10" style="stroke:#181818;stroke-width:0.5;" width="15" x="131.5" y="167.3"/><rect fill="#F1F1F1" height="2" style="stroke:#181818;stroke-width:0.5;" width="4" x="129.5" y="169.3"/><rect fill="#F1F1F1" height="2" style="stroke:#181818;stroke-width:0.5;" width="4" x="129.5" y="173.3"/><text fill="#000000" font-family="sans-serif" font-size="14" lengthAdjust="spacing" textLength="89" x="37.5" y="195.2951">Email (SMTP)</text></g><!--entity Oracle DB--><g id="elem_Oracle DB"><rect fill="#F1F1F1" height="46.2969" rx="3.5" ry="3.5" style="stroke:#181818;stroke-width:0.5;" width="109" x="1011.5" y="162.3"/><rect fill="#F1F1F1" height="10" style="stroke:#181818;stroke-width:0.5;" width="15" x="1100.5" y="167.3"/><rect fill="#F1F1F1" height="2" style="stroke:#181818;stroke-width:0.5;" width="4" x="1098.5" y="169.3"/><rect fill="#F1F1F1" height="2" style="stroke:#181818;stroke-width:0.5;" width="4" x="1098.5" y="173.3"/><text fill="#000000" font-family="sans-serif" font-size="14" lengthAdjust="spacing" textLength="69" x="1026.5" y="195.2951">Oracle DB</text></g><!--entity Spark--><g id="elem_Spark"><rect fill="#F1F1F1" height="46.2969" rx="3.5" ry="3.5" style="stroke:#181818;stroke-width:0.5;" width="79" x="1193.5" y="162.3"/><rect fill="#F1F1F1" height="10" style="stroke:#181818;stroke-width:0.5;" width="15" x="1252.5" y="167.3"/><rect fill="#F1F1F1" height="2" style="stroke:#181818;stroke-width:0.5;" width="4" x="1250.5" y="169.3"/><rect fill="#F1F1F1" height="2" style="stroke:#181818;stroke-width:0.5;" width="4" x="1250.5" y="173.3"/><text fill="#000000" font-family="sans-serif" font-size="14" lengthAdjust="spacing" textLength="39" x="1208.5" y="195.2951">Spark</text></g><!--entity Hadoop--><g id="elem_Hadoop"><rect fill="#F1F1F1" height="46.2969" rx="3.5" ry="3.5" style="stroke:#181818;stroke-width:0.5;" width="94" x="1190" y="268.6"/><rect fill="#F1F1F1" height="10" style="stroke:#181818;stroke-width:0.5;" width="15" x="1264" y="273.6"/><rect fill="#F1F1F1" height="2" style="stroke:#181818;stroke-width:0.5;" width="4" x="1262" y="275.6"/><rect fill="#F1F1F1" height="2" style="stroke:#181818;stroke-width:0.5;" width="4" x="1262" y="279.6"/><text fill="#000000" font-family="sans-serif" font-size="14" lengthAdjust="spacing" textLength="54" x="1205" y="301.5951">Hadoop</text></g><!--entity HDFS--><g id="elem_HDFS"><rect fill="#F1F1F1" height="46.2969" rx="3.5" ry="3.5" style="stroke:#181818;stroke-width:0.5;" width="78" x="1198" y="374.89"/><rect fill="#F1F1F1" height="10" style="stroke:#181818;stroke-width:0.5;" width="15" x="1256" y="379.89"/><rect fill="#F1F1F1" height="2" style="stroke:#181818;stroke-width:0.5;" width="4" x="1254" y="381.89"/><rect fill="#F1F1F1" height="2" style="stroke:#181818;stroke-width:0.5;" width="4" x="1254" y="385.89"/><text fill="#000000" font-family="sans-serif" font-size="14" lengthAdjust="spacing" textLength="38" x="1213" y="407.8851">HDFS</text></g><!--link Web UI to Java 11/Spring Boot Services--><g id="link_Web UI_Java 11/Spring Boot Services"><path d="M482.25,64.15 C493.68,64.15 505.12,64.15 516.56,64.15 " fill="none" id="Web UI-Java 11/Spring Boot Services" style="stroke:#454645;stroke-width:1.0;"/></g><!--link Spark to Hadoop--><g id="link_Spark_Hadoop"><path d="M1233.87,209.08 C1234.54,226.57 1235.2302,244.6844 1235.9002,262.1644 " fill="none" id="Spark-to-Hadoop" style="stroke:#454645;stroke-width:1.0;"/><polygon fill="#454645" points="1236.13,268.16,1239.7824,259.0134,1235.9385,263.1637,1231.7882,259.3198,1236.13,268.16" style="stroke:#454645;stroke-width:1.0;"/></g><!--link Hadoop to HDFS--><g id="link_Hadoop_HDFS"><path d="M1237,315.38 C1237,332.87 1237,350.97 1237,368.45 " fill="none" id="Hadoop-to-HDFS" style="stroke:#454645;stroke-width:1.0;"/><polygon fill="#454645" points="1237,374.45,1241,365.45,1237,369.45,1233,365.45,1237,374.45" style="stroke:#454645;stroke-width:1.0;"/></g><!--link Java 11/Spring Boot Services to Oracle--><g id="link_Java 11/Spring Boot Services_Oracle"><path d="M753.31,81.42 C787.1,89.47 822.89,101.46 853,119.3 C870.99,129.96 883.1642,142.907 894.0342,157.177 " fill="none" id="Java 11/Spring Boot Services-to-Oracle" style="stroke:#454645;stroke-width:1.0;"/><polygon fill="#454645" points="897.67,161.95,895.3983,152.3667,894.6402,157.9725,889.0344,157.2144,897.67,161.95" style="stroke:#454645;stroke-width:1.0;"/></g><!--link Java 11/Spring Boot Services to SQL Server--><g id="link_Java 11/Spring Boot Services_SQL Server"><path d="M663.67,87.54 C675.89,97.19 690.24,108.68 703,119.3 C719.71,133.2 733.6325,145.2399 748.0425,157.8999 " fill="none" id="Java 11/Spring Boot Services-to-SQL Server" style="stroke:#454645;stroke-width:1.0;"/><polygon fill="#454645" points="752.55,161.86,748.4288,152.9148,748.7937,158.5599,743.1487,158.9249,752.55,161.86" style="stroke:#454645;stroke-width:1.0;"/></g><!--link Java 11/Spring Boot Services to Teradata--><g id="link_Java 11/Spring Boot Services_Teradata"><path d="M635,87.59 C635,108.92 635,134.81 635,156.11 " fill="none" id="Java 11/Spring Boot Services-to-Teradata" style="stroke:#454645;stroke-width:1.0;"/><polygon fill="#454645" points="635,162.11,639,153.11,635,157.11,631,153.11,635,162.11" style="stroke:#454645;stroke-width:1.0;"/></g><!--link Java 11/Spring Boot Services to Impala--><g id="link_Java 11/Spring Boot Services_Impala"><path d="M604.72,87.65 C592.64,97.03 578.82,108.3 567,119.3 C552.59,132.71 541.558,144.4994 530.158,157.4294 " fill="none" id="Java 11/Spring Boot Services-to-Impala" style="stroke:#454645;stroke-width:1.0;"/><polygon fill="#454645" points="526.19,161.93,535.1424,157.8245,529.4967,158.1795,529.1416,152.5338,526.19,161.93" style="stroke:#454645;stroke-width:1.0;"/></g><!--link Java 11/Spring Boot Services to Hive--><g id="link_Java 11/Spring Boot Services_Hive"><path d="M575.75,87.77 C552.14,96.11 524.55,105.05 499,111.3 C476.29,116.86 467.23,107.58 447,119.3 C429.72,129.31 419.1136,142.3556 410.0936,156.9556 " fill="none" id="Java 11/Spring Boot Services-to-Hive" style="stroke:#454645;stroke-width:1.0;"/><polygon fill="#454645" points="406.94,162.06,415.0733,156.5057,409.568,157.8063,408.2674,152.301,406.94,162.06" style="stroke:#454645;stroke-width:1.0;"/></g><!--link Java 11/Spring Boot Services to Text/CSV Files--><g id="link_Java 11/Spring Boot Services_Text/CSV Files"><path d="M579.69,87.79 C555.36,96.73 526.18,106.09 499,111.3 C464.91,117.83 375.64,107.49 343,119.3 C318.16,128.28 298.8883,142.8706 282.5183,157.9106 " fill="none" id="Java 11/Spring Boot Services-to-Text/CSV Files" style="stroke:#454645;stroke-width:1.0;"/><polygon fill="#454645" points="278.1,161.97,287.4337,158.8265,281.7819,158.5872,282.0213,152.9354,278.1,161.97" style="stroke:#454645;stroke-width:1.0;"/></g><!--link Java 11/Spring Boot Services to Email (SMTP)--><g id="link_Java 11/Spring Boot Services_Email (SMTP)"><path d="M580.74,87.77 C556.23,96.89 526.62,106.4 499,111.3 C462.89,117.71 203.48,106.8 169,119.3 C144.9,128.04 126.7251,142.6799 111.4351,157.8799 " fill="none" id="Java 11/Spring Boot Services-to-Email (SMTP)" style="stroke:#454645;stroke-width:1.0;"/><polygon fill="#454645" points="107.18,162.11,116.3828,158.6016,110.726,158.5849,110.7427,152.9281,107.18,162.11" style="stroke:#454645;stroke-width:1.0;"/></g><!--link Java 11/Spring Boot Services to Oracle DB--><g id="link_Java 11/Spring Boot Services_Oracle DB"><path d="M753.46,71.47 C819.4,78.1 901.87,91.65 971,119.3 C996.44,129.47 1017.1718,143.6756 1035.3018,158.1556 " fill="none" id="Java 11/Spring Boot Services-to-Oracle DB" style="stroke:#454645;stroke-width:1.0;"/><polygon fill="#454645" points="1039.99,161.9,1035.4539,153.1579,1036.0831,158.7797,1030.4614,159.4089,1039.99,161.9" style="stroke:#454645;stroke-width:1.0;"/></g><!--link Java 11/Spring Boot Services to Spark--><g id="link_Java 11/Spring Boot Services_Spark"><path d="M753.32,71.3 C879.05,78.99 1068.91,94.3 1137,119.3 C1163.28,128.95 1184.6613,143.5613 1202.9713,158.3413 " fill="none" id="Java 11/Spring Boot Services-to-Spark" style="stroke:#454645;stroke-width:1.0;"/><polygon fill="#454645" points="1207.64,162.11,1203.1493,153.3445,1203.7494,158.9695,1198.1244,159.5695,1207.64,162.11" style="stroke:#454645;stroke-width:1.0;"/></g><!--SRC=[bL71Ri8m3BttApnEx80GFp09Lj10e872jWFgmHIBHQHDP4A5DEtVboP58vSfkzdMy_FpUm_saog2HkuPQvjb1iiJ7Wbw7xI7iJ5AbcYbhdlmbG7iskdRl801x1RO88n6Gs5OraUOQ6r143Uof7EHVTzHJQ-Mk4O5ELe4eI_i81tXAsEfg6XBiLbw0cBVRednu1PyCwyCgb2-o8OwmDKEdyKxpAHgJxhHj4Afe2zMs_LZh655rhE1i9hT93eF-IH6Uw5hraxdsJtNWOL1FhdV1qzE1HwqDa5GABjvFXEUwsz_0lZsV0hstfqK_AzzAUYRlodO442QXZYXb9qumd_Ow4DCSjB7-0C0]--></g></svg>